<svg version="1.1" xmlns="http://www.w3.org/2000/svg" viewBox="0 0 1693.777777777778 1106.7106225942073" width="1693.777777777778" height="1106.7106225942073">
  <!-- svg-source:excalidraw -->
  
  <defs>
    <style class="style-fonts">
      @font-face {
        font-family: "Virgil";
        src: url("https://excalidraw.com/Virgil.woff2");
      }
      @font-face {
        font-family: "Cascadia";
        src: url("https://excalidraw.com/Cascadia.woff2");
      }
    </style>
    
  </defs>
  <rect x="0" y="0" width="1693.777777777778" height="1106.7106225942073" fill="#ffffff"></rect><g stroke-linecap="round" transform="translate(10 98.96031746031713) rotate(0 105 30.5)"><path d="M15.25 0 M15.25 0 C83.68 0.99, 152.47 -0.85, 194.75 0 M15.25 0 C83.04 -2.27, 152.18 -2.09, 194.75 0 M194.75 0 C203.54 -1.78, 209.28 5, 210 15.25 M194.75 0 C202.98 -1.95, 210.06 7.17, 210 15.25 M210 15.25 C209.11 26.78, 210.92 37.76, 210 45.75 M210 15.25 C210.61 26.82, 209.05 39.18, 210 45.75 M210 45.75 C210.36 54.77, 204.16 62.71, 194.75 61 M210 45.75 C210.65 57.92, 204.61 61.83, 194.75 61 M194.75 61 C152.09 60.84, 106.87 60.38, 15.25 61 M194.75 61 C147.55 62.12, 100.36 60.68, 15.25 61 M15.25 61 C7.01 61.18, -0.85 55.39, 0 45.75 M15.25 61 C4.5 62.48, 2.28 57.26, 0 45.75 M0 45.75 C1.74 36.78, -0.38 27.81, 0 15.25 M0 45.75 C0.37 37.61, 0.89 28.53, 0 15.25 M0 15.25 C-1.17 6.88, 3.22 0.33, 15.25 0 M0 15.25 C-2.26 3.25, 4.78 -0.25, 15.25 0" stroke="#1e1e1e" stroke-width="1" fill="none"></path></g><g transform="translate(93 116.96031746031713) rotate(0 17.883333206176758 12.5)"><text x="0" y="0" font-family="Virgil, Segoe UI Emoji" font-size="20px" fill="#1e1e1e" text-anchor="start" style="white-space: pre;" direction="ltr" dominant-baseline="text-before-edge">CLI</text></g><g stroke-linecap="round" transform="translate(395.1111111111111 102.07142857142821) rotate(0 152.5 33)"><path d="M16.5 0 M16.5 0 C124.54 1.16, 234.38 -0.31, 288.5 0 M16.5 0 C101.51 0.43, 185.41 -0.22, 288.5 0 M288.5 0 C300.76 0.09, 304.84 6.67, 305 16.5 M288.5 0 C300.89 0.52, 307.11 5.79, 305 16.5 M305 16.5 C304.53 29.33, 304.65 41.6, 305 49.5 M305 16.5 C304.47 28.81, 304.4 41.16, 305 49.5 M305 49.5 C306.65 59.89, 300.31 67.3, 288.5 66 M305 49.5 C307.01 60.18, 301.69 66.12, 288.5 66 M288.5 66 C219.66 68.2, 148.38 69.24, 16.5 66 M288.5 66 C204.55 67.26, 121.11 67.04, 16.5 66 M16.5 66 C6.07 67.05, -1.42 58.57, 0 49.5 M16.5 66 C3.31 67.39, 2.26 62.35, 0 49.5 M0 49.5 C-1.62 36.32, 0.1 28.9, 0 16.5 M0 49.5 C0.08 36.52, 0.66 23.62, 0 16.5 M0 16.5 C-0.25 3.72, 6.54 -0.18, 16.5 0 M0 16.5 C-0.99 3.91, 6.31 0.04, 16.5 0" stroke="#1e1e1e" stroke-width="1" fill="none"></path></g><g transform="translate(501.1111111111111 116.07142857142821) rotate(0 47.17499923706055 12.5)"><text x="0" y="0" font-family="Virgil, Segoe UI Emoji" font-size="20px" fill="#1e1e1e" text-anchor="start" style="white-space: pre;" direction="ltr" dominant-baseline="text-before-edge">Controller</text></g><g stroke-linecap="round"><g transform="translate(107 161.07142857142824) rotate(0 -2.1178730065603304 467.2474839033133)"><path d="M-1.05 -1.14 C-1.89 154.49, -3.61 778.47, -4.23 934.72 M0.6 0.87 C-0.42 156.52, -3.81 780.08, -4.84 935.64" stroke="#1e1e1e" stroke-width="1" fill="none"></path></g></g><mask></mask><g stroke-linecap="round"><g transform="translate(548.1111111111111 168.0714285714282) rotate(0 1.3076481201168235 463.412508660054)"><path d="M-0.63 -0.35 C-0.24 154.47, 2.75 773.85, 3.25 928.4 M1.24 -1.58 C1.43 152.97, 2.47 771.84, 2.49 926.78" stroke="#1e1e1e" stroke-width="1" fill="none"></path></g></g><mask></mask><g stroke-linecap="round" transform="translate(537.1111111111111 211.0714285714282) rotate(0 13 81)"><path d="M6.5 0 M6.5 0 C10.2 -0.83, 12.17 -0.74, 19.5 0 M6.5 0 C11.38 0.32, 14.62 -0.04, 19.5 0 M19.5 0 C24.38 1.87, 25.9 0.71, 26 6.5 M19.5 0 C23.17 1.33, 24.9 0.36, 26 6.5 M26 6.5 C24.17 49.93, 24.47 91.02, 26 155.5 M26 6.5 C25.43 56.55, 24.1 108.34, 26 155.5 M26 155.5 C26.05 158.19, 23.53 160.97, 19.5 162 M26 155.5 C23.78 159.32, 21.54 163.17, 19.5 162 M19.5 162 C16.19 162.46, 12.71 161.49, 6.5 162 M19.5 162 C16.1 162.38, 12.32 161.63, 6.5 162 M6.5 162 C0.9 161.2, 0.72 159.19, 0 155.5 M6.5 162 C2.23 160.27, 1.02 157.87, 0 155.5 M0 155.5 C1.59 102.84, 1.89 51.87, 0 6.5 M0 155.5 C0.41 95.63, 0.07 37.01, 0 6.5 M0 6.5 C0.01 1.07, 1.16 1.96, 6.5 0 M0 6.5 C-1.4 2.36, 3.69 -1.67, 6.5 0" stroke="#1e1e1e" stroke-width="1" fill="none"></path></g><g stroke-linecap="round"><g transform="translate(115.77777777777783 287.4047619047616) rotate(0 206.2870324401805 -0.7619697463202044)"><path d="M-0.38 -1.08 C68.37 -1.32, 344.03 -0.49, 412.96 -0.7 M1.62 0.96 C70.23 0.31, 343.8 -2.07, 412.33 -2.49" stroke="#1e1e1e" stroke-width="1" fill="none"></path></g><g transform="translate(115.77777777777783 287.4047619047616) rotate(0 206.2870324401805 -0.7619697463202044)"><path d="M382.42 9.02 C394.67 5.92, 401.37 0.36, 410.61 -4.19 M383.78 8.35 C393.82 4.32, 404.8 -0.42, 412.51 -3.02" stroke="#1e1e1e" stroke-width="1" fill="none"></path></g><g transform="translate(115.77777777777783 287.4047619047616) rotate(0 206.2870324401805 -0.7619697463202044)"><path d="M382.26 -11.5 C394.69 -7.69, 401.45 -6.35, 410.61 -4.19 M383.63 -12.17 C393.83 -8.9, 404.87 -6.34, 412.51 -3.02" stroke="#1e1e1e" stroke-width="1" fill="none"></path></g></g><mask></mask><g transform="translate(192.44444444444446 247.7380952380949) rotate(0 124.32499694824219 12.5)"><text x="0" y="0" font-family="Virgil, Segoe UI Emoji" font-size="20px" fill="#1e1e1e" text-anchor="start" style="white-space: pre;" direction="ltr" dominant-baseline="text-before-edge">Send workload description</text></g><g transform="translate(563.1111111111111 244.0714285714282) rotate(0 29.5 44)" stroke="none"><path fill="#1e1e1e" d="M 0.34,-2.06 Q 0.34,-2.06 2.06,-1.76 3.79,-1.46 5.47,-1.04 7.15,-0.62 8.74,-0.16 10.32,0.29 12.09,0.81 13.85,1.32 15.51,1.82 17.17,2.32 18.75,2.81 20.32,3.30 21.65,3.78 22.98,4.26 24.69,5.11 26.40,5.96 28.04,6.93 29.68,7.90 31.11,8.52 32.55,9.14 34.15,10.05 35.76,10.96 37.17,11.56 38.59,12.15 40.00,13.08 41.41,14.00 42.65,14.54 43.88,15.08 44.91,15.66 45.95,16.24 47.48,17.17 49.02,18.09 50.39,19.44 51.76,20.78 53.03,21.54 54.31,22.30 55.08,23.40 55.85,24.50 56.77,25.90 57.68,27.29 58.08,28.47 58.47,29.65 59.15,31.41 59.82,33.17 60.36,34.73 60.90,36.29 61.18,37.72 61.47,39.15 61.63,40.51 61.79,41.87 61.78,43.65 61.76,45.44 61.73,47.04 61.71,48.63 61.62,50.47 61.53,52.30 61.54,53.65 61.55,55.00 61.58,56.14 61.61,57.29 61.63,58.37 61.66,59.45 61.35,60.83 61.03,62.22 59.79,64.27 58.55,66.33 57.84,67.69 57.13,69.05 56.15,70.38 55.18,71.71 54.52,72.58 53.85,73.44 52.64,74.66 51.42,75.89 50.66,76.72 49.91,77.56 48.85,78.36 47.78,79.17 46.95,79.93 46.11,80.69 45.00,81.46 43.89,82.23 42.59,83.05 41.30,83.88 40.29,84.38 39.28,84.89 37.88,85.75 36.48,86.61 34.83,87.02 33.18,87.44 31.07,88.00 28.95,88.56 27.17,88.72 25.40,88.89 24.10,89.10 22.79,89.31 21.54,89.71 20.29,90.10 18.71,90.50 17.13,90.90 15.26,90.98 13.39,91.05 12.12,91.03 10.86,91.01 8.60,91.03 6.35,91.05 5.86,90.97 5.37,90.89 4.94,90.66 4.50,90.43 4.16,90.07 3.82,89.71 3.61,89.26 3.40,88.81 3.35,88.32 3.30,87.83 3.40,87.35 3.51,86.87 3.76,86.44 4.02,86.02 4.39,85.70 4.77,85.38 5.23,85.20 5.69,85.01 6.18,84.99 6.67,84.96 7.15,85.09 7.63,85.22 8.04,85.50 8.44,85.78 8.74,86.17 9.04,86.56 9.20,87.03 9.36,87.50 9.36,87.99 9.36,88.49 9.20,88.96 9.04,89.42 8.75,89.82 8.45,90.21 8.04,90.49 7.63,90.77 7.15,90.90 6.68,91.03 6.18,91.00 5.69,90.98 5.23,90.79 4.77,90.61 4.40,90.29 4.02,89.97 3.76,89.55 3.51,89.13 3.40,88.64 3.30,88.16 3.35,87.67 3.40,87.18 3.61,86.73 3.82,86.28 4.16,85.92 4.50,85.56 4.93,85.33 5.37,85.10 5.86,85.02 6.34,84.94 6.34,84.94 6.34,84.94 8.59,84.95 10.83,84.97 12.96,84.94 15.08,84.90 16.40,84.89 17.72,84.88 19.71,84.33 21.71,83.79 24.25,83.40 26.80,83.01 28.22,82.90 29.65,82.80 30.93,82.38 32.21,81.96 33.71,81.43 35.20,80.91 36.84,80.25 38.48,79.60 40.60,78.21 42.72,76.81 44.54,75.45 46.37,74.08 47.16,73.33 47.95,72.57 49.67,70.71 51.40,68.85 52.17,67.87 52.95,66.89 53.65,65.50 54.36,64.12 55.08,62.43 55.81,60.73 56.09,59.02 56.38,57.30 56.40,56.16 56.42,55.01 56.42,53.67 56.42,52.33 56.31,50.53 56.20,48.73 56.12,47.20 56.04,45.66 55.76,43.14 55.48,40.62 55.00,38.79 54.51,36.96 54.00,35.48 53.50,34.00 53.06,32.02 52.62,30.03 51.83,29.03 51.03,28.04 50.07,26.57 49.10,25.11 47.77,23.75 46.44,22.39 45.48,21.74 44.52,21.10 43.28,20.04 42.03,18.99 40.51,18.23 38.99,17.47 37.97,16.69 36.95,15.90 35.35,15.19 33.76,14.48 32.33,13.67 30.91,12.86 29.28,12.13 27.66,11.40 26.15,10.55 24.64,9.71 23.00,8.98 21.36,8.26 20.21,7.74 19.07,7.22 17.53,6.71 16.00,6.21 14.40,5.72 12.80,5.24 10.96,4.78 9.11,4.33 7.62,3.87 6.12,3.41 4.61,3.01 3.10,2.61 1.38,2.34 -0.34,2.06 -0.58,1.99 -0.83,1.92 -1.04,1.79 -1.26,1.67 -1.44,1.49 -1.63,1.32 -1.76,1.10 -1.89,0.89 -1.97,0.65 -2.05,0.41 -2.07,0.15 -2.09,-0.09 -2.05,-0.34 -2.01,-0.59 -1.91,-0.82 -1.81,-1.05 -1.65,-1.25 -1.50,-1.45 -1.31,-1.61 -1.11,-1.77 -0.88,-1.88 -0.65,-1.99 -0.40,-2.04 -0.16,-2.09 0.09,-2.08 0.34,-2.06 0.34,-2.06 L 0.34,-2.06 Z"></path></g><g transform="translate(578.1111111111111 316.0714285714282) rotate(0 -4 14)" stroke="none"><path fill="#1e1e1e" d="M 1.10,2.20 Q 1.10,2.20 -0.03,2.79 -1.17,3.38 -2.74,4.31 -4.30,5.24 -5.20,5.99 -6.10,6.74 -7.43,7.66 -8.76,8.58 -9.78,9.47 -10.81,10.36 -11.50,11.50 -12.19,12.63 -10.78,13.23 -9.38,13.83 -7.37,15.18 -5.37,16.53 -4.45,17.21 -3.53,17.89 -1.97,19.16 -0.42,20.43 1.07,21.15 2.57,21.88 4.17,22.88 5.77,23.88 7.08,24.60 8.40,25.32 8.75,25.66 9.09,26.00 9.31,26.44 9.52,26.87 9.59,27.35 9.66,27.83 9.57,28.31 9.48,28.78 9.24,29.21 9.00,29.63 8.64,29.95 8.28,30.28 7.84,30.47 7.39,30.66 6.91,30.70 6.43,30.74 5.96,30.63 5.49,30.51 5.08,30.25 4.67,29.99 4.36,29.62 4.06,29.24 3.89,28.78 3.72,28.33 3.71,27.85 3.69,27.36 3.83,26.90 3.97,26.43 4.26,26.04 4.54,25.64 4.93,25.36 5.32,25.08 5.79,24.93 6.25,24.79 6.73,24.80 7.22,24.81 7.67,24.98 8.13,25.15 8.51,25.45 8.89,25.75 9.15,26.16 9.41,26.57 9.53,27.04 9.65,27.51 9.61,27.99 9.57,28.47 9.38,28.92 9.19,29.36 8.87,29.73 8.55,30.09 8.12,30.33 7.70,30.57 7.23,30.66 6.75,30.75 6.27,30.69 5.79,30.62 5.36,30.41 4.92,30.20 4.92,30.20 4.92,30.20 3.08,28.99 1.25,27.78 -0.26,26.78 -1.78,25.78 -3.32,24.63 -4.85,23.47 -6.60,22.22 -8.35,20.97 -9.63,20.16 -10.91,19.35 -12.02,18.57 -13.12,17.79 -13.90,17.03 -14.68,16.27 -15.64,15.15 -16.60,14.03 -16.72,12.65 -16.84,11.27 -16.31,10.17 -15.78,9.07 -14.83,7.94 -13.88,6.80 -12.66,5.78 -11.44,4.75 -10.21,3.88 -8.98,3.01 -7.91,2.24 -6.85,1.47 -5.13,0.19 -3.42,-1.08 -2.26,-1.64 -1.10,-2.20 -0.82,-2.30 -0.54,-2.40 -0.24,-2.43 0.04,-2.46 0.34,-2.41 0.63,-2.37 0.91,-2.26 1.18,-2.15 1.42,-1.98 1.66,-1.80 1.86,-1.58 2.05,-1.35 2.18,-1.09 2.31,-0.82 2.38,-0.53 2.44,-0.24 2.44,0.04 2.43,0.34 2.36,0.63 2.28,0.91 2.14,1.17 1.99,1.43 1.79,1.65 1.59,1.87 1.34,2.03 1.10,2.20 1.10,2.20 L 1.10,2.20 Z"></path></g><g transform="translate(644.1111111111111 276.0714285714282) rotate(0 152.96665954589844 12.5)"><text x="0" y="0" font-family="Virgil, Segoe UI Emoji" font-size="20px" fill="#1e1e1e" text-anchor="start" style="white-space: pre;" direction="ltr" dominant-baseline="text-before-edge">Convert workload for scheduler</text></g><g stroke-linecap="round" transform="translate(1332.777777777778 108.40476190476147) rotate(0 175.5 27)"><path d="M13.5 0 M13.5 0 C105.32 1.4, 196.53 2.51, 337.5 0 M13.5 0 C82.4 -0.17, 151.57 -0.28, 337.5 0 M337.5 0 C346.51 -0.64, 350.62 4.06, 351 13.5 M337.5 0 C344.64 1.41, 350.68 5.7, 351 13.5 M351 13.5 C353.14 20.74, 352.83 29.21, 351 40.5 M351 13.5 C350.83 22.3, 351.2 32.23, 351 40.5 M351 40.5 C351.23 47.91, 348.3 53.65, 337.5 54 M351 40.5 C349.16 48.2, 348.5 55.8, 337.5 54 M337.5 54 C243.35 55.69, 146.76 54.19, 13.5 54 M337.5 54 C245.44 53.71, 151.97 54.54, 13.5 54 M13.5 54 C6.47 55.48, 1.8 50.53, 0 40.5 M13.5 54 C4.21 52.77, -2.06 47.26, 0 40.5 M0 40.5 C-1.65 30.36, 1.59 19.94, 0 13.5 M0 40.5 C-0.45 35.64, -0.75 29.78, 0 13.5 M0 13.5 C1.55 3.98, 3.46 1.97, 13.5 0 M0 13.5 C1.77 3.61, 3.15 -2.23, 13.5 0" stroke="#1e1e1e" stroke-width="1" fill="none"></path></g><g stroke-linecap="round"><g transform="translate(1504.4444444444446 164.0714285714282) rotate(0 0.16054162718955922 456.25039552763104)"><path d="M0.01 -0.38 C0.18 151.83, 1.6 760.38, 1.77 912.73 M-1.45 -1.63 C-1.52 150.8, -0.1 761.9, 0.71 914.13" stroke="#1e1e1e" stroke-width="1" fill="none"></path></g></g><mask></mask><g stroke-linecap="round" transform="translate(896.3333333333333 98.01587301587273) rotate(0 145.83333333333348 31.666666666666686)"><path d="M15.83 0 M15.83 0 C113.67 2.89, 211.59 1.7, 275.83 0 M15.83 0 C108.29 0.68, 200.49 1.68, 275.83 0 M275.83 0 C284.72 0.78, 292.25 5.56, 291.67 15.83 M275.83 0 C285.33 0.69, 290.24 7.43, 291.67 15.83 M291.67 15.83 C292.58 27.12, 290.07 40.2, 291.67 47.5 M291.67 15.83 C292.44 27.6, 290.86 41.05, 291.67 47.5 M291.67 47.5 C292.75 56.91, 288.06 63.83, 275.83 63.33 M291.67 47.5 C293.89 59.77, 284.1 64.73, 275.83 63.33 M275.83 63.33 C183.99 63.98, 91.72 63.36, 15.83 63.33 M275.83 63.33 C188.88 64.72, 100.78 65.04, 15.83 63.33 M15.83 63.33 C4.14 62.7, 1.85 58.33, 0 47.5 M15.83 63.33 C7.51 64, -1.12 57.23, 0 47.5 M0 47.5 C0.07 38.77, -1.28 28.01, 0 15.83 M0 47.5 C0.15 41.2, -0.25 33.08, 0 15.83 M0 15.83 C-1.67 5.97, 3.83 0.4, 15.83 0 M0 15.83 C-0.63 5.1, 4.43 0.14, 15.83 0" stroke="#1e1e1e" stroke-width="1" fill="none"></path></g><g transform="translate(1457.6666666666667 119.68253968253936) rotate(0 45.28333282470703 12.5)"><text x="0" y="0" font-family="Virgil, Segoe UI Emoji" font-size="20px" fill="#1e1e1e" text-anchor="start" style="white-space: pre;" direction="ltr" dominant-baseline="text-before-edge">Scheduler</text></g><g stroke-linecap="round"><g transform="translate(1024.6666666666667 161.34920634920604) rotate(0 -3.45767895039171 461.2529896497352)"><path d="M0.25 -0.46 C-0.75 153.48, -4.97 770.14, -6.14 924.25 M-1.08 -1.74 C-2.23 151.76, -6.63 767.7, -7.16 922.26" stroke="#1e1e1e" stroke-width="1" fill="none"></path></g></g><mask></mask><g transform="translate(988.0000000000002 116.34920634920604) rotate(0 49.43333435058594 12.5)"><text x="0" y="0" font-family="Virgil, Segoe UI Emoji" font-size="20px" fill="#1e1e1e" text-anchor="start" style="white-space: pre;" direction="ltr" dominant-baseline="text-before-edge">Database</text></g><g stroke-linecap="round"><g transform="translate(564.6666666666669 348.03757068198337) rotate(0 454.9795953262597 -0.48423167320015637)"><path d="M-0.43 -0.07 C151.15 -0.17, 758.59 0.61, 910.39 0.43 M1.55 -1.15 C152.92 -1.09, 758.27 -1.53, 909.64 -1.4" stroke="#1e1e1e" stroke-width="1" fill="none"></path></g><g transform="translate(564.6666666666669 348.03757068198337) rotate(0 454.9795953262597 -0.48423167320015637)"><path d="M881.34 9.51 C892.93 5.68, 900.96 -0.52, 911.23 -1.41 M882.21 9.59 C888.23 5.69, 892.71 4.16, 909.07 -0.43" stroke="#1e1e1e" stroke-width="1" fill="none"></path></g><g transform="translate(564.6666666666669 348.03757068198337) rotate(0 454.9795953262597 -0.48423167320015637)"><path d="M881.34 -11.02 C893.11 -7.1, 901.13 -5.56, 911.23 -1.41 M882.2 -10.93 C888.27 -10.47, 892.75 -7.65, 909.07 -0.43" stroke="#1e1e1e" stroke-width="1" fill="none"></path></g></g><mask></mask><g stroke-linecap="round" transform="translate(1483.0000000000002 267.9047619047616) rotate(0 22.5 79.16666666666663)"><path d="M11.25 0 M11.25 0 C16.38 0.74, 26.99 0.9, 33.75 0 M11.25 0 C19.31 -0.21, 27.43 0.27, 33.75 0 M33.75 0 C39.99 -0.73, 43.15 4.49, 45 11.25 M33.75 0 C41.02 -1.84, 46.92 4.39, 45 11.25 M45 11.25 C46.33 62.8, 47.03 110.39, 45 147.08 M45 11.25 C46.53 53.25, 46.77 96.44, 45 147.08 M45 147.08 C46.03 154.94, 42.72 160.3, 33.75 158.33 M45 147.08 C45.47 156.87, 42.34 156.8, 33.75 158.33 M33.75 158.33 C24.15 160.1, 18.35 157.29, 11.25 158.33 M33.75 158.33 C28.31 159.31, 25.19 158.18, 11.25 158.33 M11.25 158.33 C2.07 157.78, 0.08 153.78, 0 147.08 M11.25 158.33 C5.32 158.12, 1.02 152.36, 0 147.08 M0 147.08 C-2.73 93.3, -2.04 44.14, 0 11.25 M0 147.08 C-0.76 114.77, -0.18 81.4, 0 11.25 M0 11.25 C-0.23 3.95, 3.72 -0.41, 11.25 0 M0 11.25 C-1.9 2.28, 5.63 -0.64, 11.25 0" stroke="#1e1e1e" stroke-width="1" fill="none"></path></g><g transform="translate(1146.3333333333333 301.349206349206) rotate(0 94.05833435058594 12.5)"><text x="0" y="0" font-family="Virgil, Segoe UI Emoji" font-size="20px" fill="#1e1e1e" text-anchor="start" style="white-space: pre;" direction="ltr" dominant-baseline="text-before-edge">Sends grpc request</text></g><g stroke-linecap="round" transform="translate(533.5555555555554 405.7936507936505) rotate(0 16.111111111111143 95.5555555555556)"><path d="M8.06 0 M8.06 0 C12.78 -0.42, 19.97 -0.86, 24.17 0 M8.06 0 C12.98 -0.48, 16.65 0.13, 24.17 0 M24.17 0 C31.27 -0.43, 33.5 2.71, 32.22 8.06 M24.17 0 C28.16 -0.42, 34.35 1.18, 32.22 8.06 M32.22 8.06 C33.53 56.88, 33.22 105.97, 32.22 183.06 M32.22 8.06 C33.21 59.38, 33.29 109.3, 32.22 183.06 M32.22 183.06 C32.61 189.36, 31.17 189.62, 24.17 191.11 M32.22 183.06 C33.91 188.76, 30.9 193.29, 24.17 191.11 M24.17 191.11 C19.49 190.87, 17.24 191.62, 8.06 191.11 M24.17 191.11 C19.25 191.79, 12.88 190.87, 8.06 191.11 M8.06 191.11 C2.76 192.85, 1.59 189.64, 0 183.06 M8.06 191.11 C4.94 192.62, -1.5 190.18, 0 183.06 M0 183.06 C0.49 135.58, 0.37 85.58, 0 8.06 M0 183.06 C0.98 145.52, 1.86 105.73, 0 8.06 M0 8.06 C1.21 2.75, 0.71 0.09, 8.06 0 M0 8.06 C-1.77 3.48, 3.45 -0.2, 8.06 0" stroke="#1e1e1e" stroke-width="1" fill="none"></path></g><g stroke-linecap="round"><g transform="translate(1479.111111111111 415.64281597861793) rotate(0 -454.01063741423604 1.6946090929194213)"><path d="M0.27 0.33 C-151 0.59, -756.44 1.88, -907.87 2.4 M-1.05 -0.55 C-152.36 -0.15, -756.99 3.58, -908.29 3.93" stroke="#1e1e1e" stroke-width="1" fill="none"></path></g><g transform="translate(1479.111111111111 415.64281597861793) rotate(0 -454.01063741423604 1.6946090929194213)"><path d="M-879.6 -4.76 C-887.84 -2.64, -893.91 -2.5, -908.89 4.01 M-879.17 -5.8 C-891.6 -1.5, -902.09 1.99, -908.18 4.39" stroke="#1e1e1e" stroke-width="1" fill="none"></path></g><g transform="translate(1479.111111111111 415.64281597861793) rotate(0 -454.01063741423604 1.6946090929194213)"><path d="M-879.51 15.76 C-887.92 12.22, -894.01 6.7, -908.89 4.01 M-879.07 14.72 C-891.71 11.08, -902.23 6.63, -908.18 4.39" stroke="#1e1e1e" stroke-width="1" fill="none"></path></g></g><mask></mask><g transform="translate(735.7777777777774 385.79365079365044) rotate(0 43.724998474121094 12.5)"><text x="0" y="0" font-family="Virgil, Segoe UI Emoji" font-size="20px" fill="#1e1e1e" text-anchor="start" style="white-space: pre;" direction="ltr" dominant-baseline="text-before-edge">Response</text></g><g transform="translate(309.1111111111111 488.01587301587256) rotate(0 77.69999694824219 25)"><text x="0" y="0" font-family="Virgil, Segoe UI Emoji" font-size="20px" fill="#1e1e1e" text-anchor="start" style="white-space: pre;" direction="ltr" dominant-baseline="text-before-edge">Check state </text><text x="0" y="25" font-family="Virgil, Segoe UI Emoji" font-size="20px" fill="#1e1e1e" text-anchor="start" style="white-space: pre;" direction="ltr" dominant-baseline="text-before-edge">of the response</text></g><g stroke-linecap="round" transform="translate(510.22222222222194 635.7936507936505) rotate(0 35.55555555555554 56.11111111111114)"><path d="M45 14.25 M45 14.25 C49.99 21.73, 57.38 31.94, 62.11 42.75 M45 14.25 C49.32 21.43, 53.14 28.05, 62.11 42.75 M62.11 42.75 C71.1 55.84, 73.04 57.12, 62.11 71.25 M62.11 42.75 C73.3 55.49, 72.8 55.3, 62.11 71.25 M62.11 71.25 C56.92 79.14, 52.07 84.51, 45 97.97 M62.11 71.25 C54.81 81.77, 48.27 90.79, 45 97.97 M45 97.97 C36.18 113.56, 37.19 113.57, 27 97.97 M45 97.97 C34.1 110.8, 34.66 111.08, 27 97.97 M27 97.97 C24.56 93.63, 17.04 86.66, 9 71.25 M27 97.97 C21.49 89.06, 14.59 78.84, 9 71.25 M9 71.25 C-1.47 56.89, -1.15 58.93, 9 42.75 M9 71.25 C-0.34 57.27, 0.43 54.95, 9 42.75 M9 42.75 C15.44 30.2, 22.24 20.91, 27 14.25 M9 42.75 C14.35 34.22, 19.01 27.09, 27 14.25 M27 14.25 C34.19 1.92, 35.38 0.29, 45 14.25 M27 14.25 C36.72 0.79, 37.99 -1.02, 45 14.25" stroke="#1e1e1e" stroke-width="1" fill="none"></path></g><g transform="translate(532.4444444444443 505.7936507936505) rotate(0 -25 82.77777777777777)" stroke="none"><path fill="#1e1e1e" d="M 0.85,2.14 Q 0.85,2.14 -0.74,2.75 -2.35,3.36 -3.76,4.45 -5.18,5.54 -6.77,6.79 -8.35,8.03 -9.73,9.72 -11.11,11.41 -12.19,12.48 -13.26,13.56 -15.05,15.43 -16.83,17.31 -18.26,19.01 -19.69,20.72 -21.35,22.46 -23.02,24.20 -23.90,25.51 -24.79,26.82 -25.43,28.23 -26.07,29.65 -27.08,31.33 -28.08,33.01 -29.17,34.90 -30.26,36.79 -31.39,38.87 -32.51,40.94 -33.65,43.09 -34.78,45.25 -35.56,47.35 -36.34,49.46 -37.36,51.43 -38.39,53.39 -38.70,55.01 -39.00,56.63 -39.44,58.13 -39.88,59.63 -40.78,61.82 -41.69,64.01 -42.37,65.87 -43.06,67.74 -43.64,69.50 -44.22,71.25 -44.37,72.54 -44.51,73.83 -44.96,75.73 -45.41,77.63 -45.98,79.70 -46.54,81.76 -46.72,83.51 -46.90,85.25 -47.30,87.09 -47.70,88.93 -47.91,91.13 -48.12,93.33 -48.14,94.94 -48.15,96.55 -48.20,98.50 -48.25,100.44 -48.31,102.55 -48.38,104.66 -48.42,107.15 -48.47,109.64 -48.18,112.87 -47.90,116.09 -47.47,118.39 -47.05,120.68 -46.54,122.60 -46.03,124.51 -45.68,125.69 -45.34,126.87 -44.88,128.22 -44.42,129.57 -43.66,130.98 -42.90,132.38 -42.19,134.08 -41.47,135.77 -40.85,137.45 -40.23,139.13 -39.62,140.40 -39.02,141.67 -38.19,143.10 -37.36,144.52 -36.62,145.82 -35.87,147.11 -35.22,148.27 -34.57,149.42 -33.22,150.44 -31.87,151.46 -30.35,153.20 -28.83,154.94 -27.83,155.52 -26.83,156.10 -25.61,157.17 -24.39,158.25 -22.90,159.24 -21.41,160.23 -19.86,161.64 -18.31,163.06 -18.02,163.44 -17.73,163.82 -17.58,164.28 -17.42,164.74 -17.43,165.22 -17.43,165.70 -17.59,166.15 -17.74,166.61 -18.03,166.99 -18.33,167.37 -18.73,167.64 -19.13,167.90 -19.59,168.03 -20.05,168.16 -20.53,168.13 -21.01,168.10 -21.46,167.92 -21.90,167.74 -22.27,167.43 -22.63,167.11 -22.88,166.70 -23.13,166.29 -23.23,165.82 -23.33,165.35 -23.27,164.87 -23.22,164.39 -23.01,163.96 -22.81,163.52 -22.48,163.17 -22.15,162.83 -21.72,162.60 -21.29,162.38 -20.82,162.31 -20.34,162.23 -19.87,162.31 -19.40,162.39 -18.97,162.62 -18.55,162.85 -18.22,163.20 -17.89,163.55 -17.69,163.98 -17.49,164.42 -17.44,164.90 -17.39,165.38 -17.50,165.85 -17.61,166.32 -17.86,166.73 -18.11,167.14 -18.47,167.45 -18.84,167.76 -19.29,167.93 -19.74,168.11 -20.22,168.13 -20.70,168.15 -21.16,168.02 -21.62,167.89 -22.02,167.62 -22.41,167.35 -22.41,167.35 -22.41,167.35 -24.29,165.60 -26.16,163.84 -27.78,162.55 -29.40,161.25 -30.32,160.31 -31.23,159.37 -32.10,158.62 -32.98,157.86 -34.08,156.38 -35.18,154.89 -35.99,154.05 -36.81,153.21 -37.58,152.36 -38.35,151.51 -38.93,150.29 -39.51,149.07 -40.15,147.79 -40.79,146.51 -41.73,144.88 -42.68,143.25 -43.22,141.84 -43.77,140.42 -44.35,138.80 -44.93,137.18 -45.55,135.63 -46.17,134.07 -47.03,132.32 -47.90,130.58 -48.26,129.03 -48.63,127.49 -48.72,126.36 -48.81,125.24 -49.33,123.23 -49.84,121.22 -50.33,118.80 -50.81,116.37 -51.16,113.00 -51.51,109.64 -51.54,107.14 -51.57,104.64 -51.61,102.51 -51.65,100.39 -51.63,98.39 -51.62,96.39 -51.49,94.74 -51.35,93.09 -51.21,90.61 -51.08,88.14 -50.66,86.50 -50.24,84.86 -49.99,82.93 -49.74,80.99 -49.30,78.91 -48.86,76.84 -48.45,75.00 -48.05,73.17 -47.67,71.68 -47.30,70.20 -46.67,68.43 -46.03,66.67 -45.35,64.76 -44.68,62.85 -43.88,60.66 -43.09,58.48 -42.54,57.20 -41.99,55.93 -41.46,54.02 -40.94,52.11 -40.02,50.29 -39.11,48.46 -38.31,46.17 -37.52,43.87 -36.45,41.67 -35.39,39.47 -34.35,37.32 -33.31,35.17 -32.31,33.14 -31.32,31.10 -30.42,29.55 -29.53,28.00 -28.70,26.33 -27.87,24.65 -26.81,23.21 -25.75,21.77 -24.34,20.04 -22.92,18.30 -21.61,16.35 -20.30,14.40 -18.65,12.17 -16.99,9.94 -15.99,8.88 -14.99,7.81 -14.12,6.86 -13.25,5.92 -12.21,4.78 -11.17,3.64 -9.67,2.64 -8.17,1.65 -7.28,1.04 -6.38,0.44 -5.21,-0.18 -4.03,-0.80 -2.44,-1.47 -0.85,-2.14 -0.58,-2.21 -0.31,-2.28 -0.04,-2.29 0.23,-2.29 0.50,-2.23 0.78,-2.17 1.02,-2.05 1.27,-1.92 1.49,-1.74 1.70,-1.56 1.86,-1.33 2.02,-1.11 2.13,-0.85 2.23,-0.59 2.27,-0.31 2.31,-0.04 2.28,0.23 2.25,0.51 2.16,0.77 2.06,1.03 1.91,1.26 1.75,1.50 1.55,1.69 1.34,1.87 1.10,2.01 0.85,2.14 0.85,2.14 L 0.85,2.14 Z"></path></g><g transform="translate(525.7777777777777 663.5714285714282) rotate(0 -9.444444444444457 7.7777777777777715)" stroke="none"><path fill="#1e1e1e" d="M 2.36,0 Q 2.36,0 2.22,2.55 2.08,5.10 2.37,6.64 2.66,8.18 2.85,9.64 3.05,11.09 3.14,13.06 3.24,15.03 2.56,16.04 1.89,17.05 0.21,17.48 -1.45,17.91 -3.24,17.62 -5.03,17.34 -6.45,17.21 -7.87,17.09 -9.42,16.69 -10.97,16.29 -12.95,16.09 -14.93,15.88 -15.88,15.31 -16.83,14.74 -18.60,14.34 -20.38,13.94 -20.80,13.75 -21.22,13.56 -21.56,13.25 -21.89,12.93 -22.11,12.53 -22.33,12.13 -22.41,11.68 -22.49,11.22 -22.42,10.77 -22.35,10.32 -22.13,9.91 -21.92,9.50 -21.59,9.18 -21.26,8.87 -20.85,8.67 -20.43,8.47 -19.98,8.42 -19.52,8.37 -19.07,8.46 -18.62,8.55 -18.23,8.79 -17.83,9.02 -17.53,9.37 -17.23,9.72 -17.06,10.14 -16.89,10.56 -16.86,11.02 -16.83,11.48 -16.95,11.92 -17.07,12.37 -17.32,12.75 -17.57,13.13 -17.94,13.41 -18.30,13.69 -18.73,13.84 -19.17,13.99 -19.63,14.00 -20.08,14.00 -20.52,13.86 -20.96,13.72 -21.32,13.44 -21.69,13.17 -21.95,12.79 -22.21,12.41 -22.34,11.97 -22.47,11.53 -22.45,11.07 -22.42,10.61 -22.26,10.19 -22.09,9.76 -21.80,9.41 -21.50,9.05 -21.11,8.81 -20.72,8.57 -20.28,8.47 -19.83,8.37 -19.37,8.41 -18.92,8.46 -18.92,8.46 -18.92,8.46 -17.03,9.11 -15.14,9.77 -13.74,10.40 -12.34,11.02 -10.98,11.24 -9.61,11.46 -8.55,11.79 -7.50,12.12 -5.80,12.23 -4.09,12.33 -2.59,13.16 -1.09,14.00 -1.16,12.75 -1.22,11.51 -1.30,10.22 -1.38,8.93 -1.73,7.02 -2.08,5.11 -2.22,2.55 -2.36,0 -2.32,-0.28 -2.29,-0.56 -2.19,-0.83 -2.09,-1.09 -1.92,-1.33 -1.76,-1.56 -1.55,-1.75 -1.34,-1.94 -1.08,-2.07 -0.83,-2.20 -0.56,-2.27 -0.28,-2.34 0.00,-2.34 0.28,-2.34 0.56,-2.27 0.83,-2.20 1.08,-2.07 1.34,-1.94 1.55,-1.75 1.76,-1.56 1.93,-1.33 2.09,-1.09 2.19,-0.83 2.29,-0.56 2.32,-0.28 2.36,0.00 2.36,0.00 L 2.36,0 Z"></path></g><g stroke-linecap="round"><g transform="translate(580.0051024655836 696.7786540207069) rotate(0 210.02986508670733 -2.350129791815448)"><path d="M-0.06 -0.58 C69.91 -1.57, 349.53 -5.46, 419.39 -6.42 M-1.55 1.72 C68.83 0.97, 351.12 -3.87, 421.61 -5" stroke="#1e1e1e" stroke-width="1" fill="none"></path></g><g transform="translate(580.0051024655836 696.7786540207069) rotate(0 210.02986508670733 -2.350129791815448)"><path d="M392.62 4.16 C400.64 0.92, 408.16 0.68, 421.29 -6.02 M392.69 5.45 C401.15 3.54, 411.53 -0.96, 422.5 -5.62" stroke="#1e1e1e" stroke-width="1" fill="none"></path></g><g transform="translate(580.0051024655836 696.7786540207069) rotate(0 210.02986508670733 -2.350129791815448)"><path d="M392.28 -16.35 C400.3 -14.2, 407.91 -9.05, 421.29 -6.02 M392.35 -15.06 C400.79 -10.8, 411.27 -9.12, 422.5 -5.62" stroke="#1e1e1e" stroke-width="1" fill="none"></path></g></g><mask></mask><g stroke-linecap="round" transform="translate(1001.3333333333328 658.0158730158727) rotate(0 18.888888888888914 77.77777777777777)"><path d="M9.44 0 M9.44 0 C14.36 2.01, 16.91 0.42, 28.33 0 M9.44 0 C13.31 0.08, 17.37 -0.68, 28.33 0 M28.33 0 C35.91 -0.22, 37.55 4.8, 37.78 9.44 M28.33 0 C35.59 -1.2, 39 2.97, 37.78 9.44 M37.78 9.44 C35.9 60.07, 37.04 111.08, 37.78 146.11 M37.78 9.44 C36.11 50.45, 36.7 92.58, 37.78 146.11 M37.78 146.11 C38.66 151.54, 32.65 156.91, 28.33 155.56 M37.78 146.11 C36.2 153.92, 34.12 153.61, 28.33 155.56 M28.33 155.56 C22.34 155.94, 14.53 154.98, 9.44 155.56 M28.33 155.56 C24.5 156.21, 19.9 154.77, 9.44 155.56 M9.44 155.56 C2.05 156.9, -0.67 153.29, 0 146.11 M9.44 155.56 C2.92 154.69, -0.01 153.95, 0 146.11 M0 146.11 C2.87 95.57, 0.26 44.32, 0 9.44 M0 146.11 C-2.06 103.6, -0.65 60.14, 0 9.44 M0 9.44 C-0.88 4.28, 1.93 1.79, 9.44 0 M0 9.44 C1.07 5.45, 3.84 0.77, 9.44 0" stroke="#1e1e1e" stroke-width="1" fill="none"></path></g><g transform="translate(668 659.1269841269838) rotate(0 120.24166870117188 12.5)"><text x="0" y="0" font-family="Virgil, Segoe UI Emoji" font-size="20px" fill="#1e1e1e" text-anchor="start" style="white-space: pre;" direction="ltr" dominant-baseline="text-before-edge">OK -&gt; store state in db</text></g><g stroke-linecap="round" transform="translate(85.77777777777771 659.1269841269839) rotate(0 19.444444444444457 44.4444444444444)"><path d="M9.72 0 M9.72 0 C13.96 -0.34, 18.81 -0.56, 29.17 0 M9.72 0 C14.53 -0.81, 19.48 0.34, 29.17 0 M29.17 0 C35.18 0.52, 39.08 3.95, 38.89 9.72 M29.17 0 C37.26 -1.55, 38.86 3.37, 38.89 9.72 M38.89 9.72 C39.95 32.22, 37.96 58.61, 38.89 79.17 M38.89 9.72 C38.2 34.35, 38.68 58.56, 38.89 79.17 M38.89 79.17 C40.85 86.92, 35.9 87.6, 29.17 88.89 M38.89 79.17 C38.24 87.33, 37.52 87.83, 29.17 88.89 M29.17 88.89 C23.86 88.47, 15.85 90.25, 9.72 88.89 M29.17 88.89 C24.08 89.58, 17.37 89.46, 9.72 88.89 M9.72 88.89 C4.33 87.05, 1.47 86.12, 0 79.17 M9.72 88.89 C4.74 89.45, -1.86 85.83, 0 79.17 M0 79.17 C-0.97 60.27, -1.32 41.22, 0 9.72 M0 79.17 C0.22 60.03, -0.5 40.12, 0 9.72 M0 9.72 C-0.04 2.11, 2.15 0.04, 9.72 0 M0 9.72 C-1.36 3.63, 5.14 0.8, 9.72 0" stroke="#1e1e1e" stroke-width="1" fill="none"></path></g><g stroke-linecap="round"><g transform="translate(507.9999999999999 694.6825396825394) rotate(0 -184.8698511289391 -0.1976491938610252)"><path d="M-0.47 -1.17 C-62.07 -1.35, -308.71 -0.98, -370.56 -0.99 M1.48 0.83 C-60.14 0.76, -308.87 0.25, -371.22 0.03" stroke="#1e1e1e" stroke-width="1" fill="none"></path></g><g transform="translate(507.9999999999999 694.6825396825394) rotate(0 -184.8698511289391 -0.1976491938610252)"><path d="M-344.95 -9.24 C-350.82 -8.84, -357.35 -7.57, -371.51 -1.3 M-343.96 -9.58 C-350.1 -7.98, -357.69 -4.85, -371.81 0.2" stroke="#1e1e1e" stroke-width="1" fill="none"></path></g><g transform="translate(507.9999999999999 694.6825396825394) rotate(0 -184.8698511289391 -0.1976491938610252)"><path d="M-345.01 11.28 C-350.88 7.19, -357.4 3.96, -371.51 -1.3 M-344.01 10.94 C-350.1 7.41, -357.67 5.4, -371.81 0.2" stroke="#1e1e1e" stroke-width="1" fill="none"></path></g></g><mask></mask><g transform="translate(165.77777777777771 655.7936507936505) rotate(0 156.0749969482422 12.5)"><text x="0" y="0" font-family="Virgil, Segoe UI Emoji" font-size="20px" fill="#1e1e1e" text-anchor="start" style="white-space: pre;" direction="ltr" dominant-baseline="text-before-edge">NOT OK -&gt; send error to client</text></g><g stroke-linecap="round" transform="translate(534.6666666666665 774.6825396825393) rotate(0 13.611111111111086 156.16666666666663)"><path d="M6.81 0 M6.81 0 C9.85 1.04, 11.59 -0.69, 20.42 0 M6.81 0 C11.63 0.2, 15.28 0.13, 20.42 0 M20.42 0 C25.45 0.58, 29 4.18, 27.22 6.81 M20.42 0 C25.93 1.75, 29.33 3.71, 27.22 6.81 M27.22 6.81 C27.1 98.85, 25.8 191.19, 27.22 305.53 M27.22 6.81 C26.28 122.34, 26.18 237.77, 27.22 305.53 M27.22 305.53 C26.7 308.46, 25.45 312.29, 20.42 312.33 M27.22 305.53 C25.42 312.03, 23.13 314.13, 20.42 312.33 M20.42 312.33 C15.28 311.45, 10.8 313.5, 6.81 312.33 M20.42 312.33 C15.54 312.03, 11.77 312.52, 6.81 312.33 M6.81 312.33 C3.13 312.83, -1.31 311.76, 0 305.53 M6.81 312.33 C2.24 313.01, 1.5 309.76, 0 305.53 M0 305.53 C1.66 227.76, 1.68 149.3, 0 6.81 M0 305.53 C-1.71 193.58, -1.32 83.38, 0 6.81 M0 6.81 C-1.09 1.77, 2.6 0.35, 6.81 0 M0 6.81 C0 2.5, 0.42 0.94, 6.81 0" stroke="#1e1e1e" stroke-width="1" fill="none"></path></g><g stroke-linecap="round"><g transform="translate(997.5785440613024 790.3479772315347) rotate(0 -218.65329173079755 1.7664112857717669)"><path d="M0.26 0.67 C-72.48 1.45, -364.58 3.2, -437.56 3.56 M-1.07 -0.03 C-73.34 0.55, -363 1.88, -435.38 2" stroke="#1e1e1e" stroke-width="1" fill="none"></path></g><g transform="translate(997.5785440613024 790.3479772315347) rotate(0 -218.65329173079755 1.7664112857717669)"><path d="M-406.11 -10.02 C-411.3 -7.98, -418.23 -2.51, -436.15 2.13 M-406.47 -8.11 C-413.9 -5.28, -419.55 -3.8, -436.32 1.44" stroke="#1e1e1e" stroke-width="1" fill="none"></path></g><g transform="translate(997.5785440613024 790.3479772315347) rotate(0 -218.65329173079755 1.7664112857717669)"><path d="M-406.04 10.5 C-411.05 8.34, -417.99 9.61, -436.15 2.13 M-406.4 12.42 C-413.95 10.9, -419.62 8.04, -436.32 1.44" stroke="#1e1e1e" stroke-width="1" fill="none"></path></g></g><mask></mask><g transform="translate(757.9999999999998 759.1269841269839) rotate(0 43.724998474121094 12.5)"><text x="0" y="0" font-family="Virgil, Segoe UI Emoji" font-size="20px" fill="#1e1e1e" text-anchor="start" style="white-space: pre;" direction="ltr" dominant-baseline="text-before-edge">Response</text></g><g stroke-linecap="round" transform="translate(90.22222222222211 840.238095238095) rotate(0 13.888888888888886 78.88888888888891)"><path d="M6.94 0 M6.94 0 C12.34 0.16, 15.22 1.22, 20.83 0 M6.94 0 C9.75 0.45, 13.66 0.13, 20.83 0 M20.83 0 C25.24 0.91, 28.65 2.51, 27.78 6.94 M20.83 0 C25.62 -0.91, 26.63 2.36, 27.78 6.94 M27.78 6.94 C29.56 49.32, 28.72 93.17, 27.78 150.83 M27.78 6.94 C28.77 43.92, 28.67 82.63, 27.78 150.83 M27.78 150.83 C28.97 157.44, 25.37 157.42, 20.83 157.78 M27.78 150.83 C29.52 156.06, 26.72 157.97, 20.83 157.78 M20.83 157.78 C19.24 157.43, 13.78 156.87, 6.94 157.78 M20.83 157.78 C14.91 158.11, 9.89 157.32, 6.94 157.78 M6.94 157.78 C3.43 158.61, -1.45 156.76, 0 150.83 M6.94 157.78 C4.51 156.86, -1.91 155.59, 0 150.83 M0 150.83 C2.23 100.3, -0.54 52.94, 0 6.94 M0 150.83 C1.49 103.19, 1.83 57.64, 0 6.94 M0 6.94 C0.32 3.56, 1.24 -0.06, 6.94 0 M0 6.94 C1.83 3.71, 2.3 -0.93, 6.94 0" stroke="#1e1e1e" stroke-width="1" fill="none"></path></g><g stroke-linecap="round"><g transform="translate(533.0637254901959 857.6002115741433) rotate(0 -206.58176652678003 -0.3910036937629684)"><path d="M1.14 -0.35 C-67.9 -0.49, -345.44 -0.38, -414.3 -0.3 M0.28 -1.58 C-68.4 -1.63, -343.4 0.32, -412.15 0.8" stroke="#1e1e1e" stroke-width="1" fill="none"></path></g><g transform="translate(533.0637254901959 857.6002115741433) rotate(0 -206.58176652678003 -0.3910036937629684)"><path d="M-384.61 -11.42 C-393.67 -4.34, -401.2 -3.09, -413.28 1.72 M-383.61 -10.38 C-392.36 -5.23, -402.31 -3.71, -412.09 1.2" stroke="#1e1e1e" stroke-width="1" fill="none"></path></g><g transform="translate(533.0637254901959 857.6002115741433) rotate(0 -206.58176652678003 -0.3910036937629684)"><path d="M-384.47 9.11 C-393.66 10.12, -401.23 5.33, -413.28 1.72 M-383.47 10.14 C-392.12 8.79, -402.12 3.82, -412.09 1.2" stroke="#1e1e1e" stroke-width="1" fill="none"></path></g></g><mask></mask><g transform="translate(255.7777777777776 824.9047619047617) rotate(0 43.724998474121094 12.5)"><text x="0" y="0" font-family="Virgil, Segoe UI Emoji" font-size="20px" fill="#1e1e1e" text-anchor="start" style="white-space: pre;" direction="ltr" dominant-baseline="text-before-edge">Response</text></g><g transform="translate(20.22222222222217 10) rotate(0 177.11666870117188 22.5)"><text x="0" y="0" font-family="Virgil, Segoe UI Emoji" font-size="36px" fill="#1e1e1e" text-anchor="start" style="white-space: pre;" direction="ltr" dominant-baseline="text-before-edge">FLow d'un workload </text></g><g stroke-linecap="round" transform="translate(1485.9944443172878 882.7936507936505) rotate(0 22.5 97.66666666666669)"><path d="M11.25 0 M11.25 0 C18.32 0.41, 25.18 -1.87, 33.75 0 M11.25 0 C18 -0.27, 25.3 -0.86, 33.75 0 M33.75 0 C39.66 1.95, 45.78 2.96, 45 11.25 M33.75 0 C39.11 0.51, 45.54 2.98, 45 11.25 M45 11.25 C45.16 47.2, 44.52 83.87, 45 184.08 M45 11.25 C42.4 59.05, 43.21 108.43, 45 184.08 M45 184.08 C46.09 192.17, 42.71 197.07, 33.75 195.33 M45 184.08 C44.45 190.81, 39.2 193.33, 33.75 195.33 M33.75 195.33 C27.78 196.95, 21.87 194.5, 11.25 195.33 M33.75 195.33 C28.07 194.65, 23.81 195.94, 11.25 195.33 M11.25 195.33 C2.83 194.79, -0.42 192.54, 0 184.08 M11.25 195.33 C4.97 197.08, 1.67 191.81, 0 184.08 M0 184.08 C0.69 118.9, 1.79 53.33, 0 11.25 M0 184.08 C1.21 142.03, 2.54 100.91, 0 11.25 M0 11.25 C-0.85 2.69, 3.29 0.55, 11.25 0 M0 11.25 C1.67 4.09, 5.88 0.4, 11.25 0" stroke="#1e1e1e" stroke-width="1" fill="none"></path></g><g stroke-linecap="round"><g transform="translate(1481.8842402356554 894.2016116858838) rotate(0 -459.4737708391985 -0.36643899374996636)"><path d="M-0.88 0.91 C-153.98 0.55, -766.06 -1.1, -918.91 -1.64 M0.86 0.34 C-152.37 0.14, -766.63 0.22, -919.81 -0.06" stroke="#1e1e1e" stroke-width="1" fill="none"></path></g><g transform="translate(1481.8842402356554 894.2016116858838) rotate(0 -459.4737708391985 -0.36643899374996636)"><path d="M-890.09 -10.15 C-899.23 -5.98, -908.18 -5.99, -920.36 -1.89 M-890.73 -9.79 C-898.23 -8.18, -904.21 -6.28, -918.97 -0.85" stroke="#1e1e1e" stroke-width="1" fill="none"></path></g><g transform="translate(1481.8842402356554 894.2016116858838) rotate(0 -459.4737708391985 -0.36643899374996636)"><path d="M-890.11 10.37 C-899.33 8.86, -908.28 3.15, -920.36 -1.89 M-890.75 10.73 C-898.22 7.95, -904.2 5.46, -918.97 -0.85" stroke="#1e1e1e" stroke-width="1" fill="none"></path></g></g><mask></mask><g transform="translate(880.7694458431667 863.4603174603171) rotate(0 149.38333129882812 12.5)"><text x="0" y="0" font-family="Virgil, Segoe UI Emoji" font-size="20px" fill="#1e1e1e" text-anchor="start" style="white-space: pre;" direction="ltr" dominant-baseline="text-before-edge">State change (ex. node crush)</text></g><g transform="translate(567.9944443172878 917.9603174603171) rotate(0 29.5 35.5)" stroke="none"><path fill="#1e1e1e" d="M 0.28,-2.12 Q 0.28,-2.12 2.00,-1.87 3.73,-1.62 5.40,-1.28 7.07,-0.94 8.64,-0.58 10.22,-0.21 11.99,0.21 13.76,0.63 15.42,1.03 17.08,1.43 18.65,1.82 20.22,2.21 21.53,2.59 22.85,2.96 24.56,3.64 26.27,4.33 27.91,5.11 29.55,5.89 31.00,6.38 32.44,6.88 34.04,7.61 35.64,8.35 37.06,8.83 38.48,9.31 39.88,10.04 41.28,10.77 42.52,11.21 43.76,11.64 44.78,12.10 45.80,12.55 47.32,13.29 48.85,14.02 50.25,15.14 51.66,16.26 52.88,16.82 54.11,17.38 54.90,18.28 55.68,19.18 56.64,20.38 57.61,21.58 58.38,23.16 59.16,24.75 59.76,26.04 60.35,27.32 60.95,29.28 61.55,31.24 61.75,32.41 61.94,33.59 61.98,35.10 62.01,36.60 62.01,37.91 62.01,39.21 61.96,40.70 61.92,42.18 61.93,43.27 61.93,44.36 61.96,46.18 61.99,48.00 61.64,49.30 61.28,50.61 60.03,52.38 58.79,54.15 58.08,55.24 57.37,56.33 56.33,57.46 55.30,58.59 53.37,60.28 51.45,61.98 49.58,63.31 47.71,64.64 45.74,65.86 43.78,67.09 42.48,67.74 41.19,68.39 40.17,68.79 39.16,69.20 37.76,69.88 36.36,70.57 34.74,70.89 33.11,71.21 30.99,71.66 28.88,72.10 27.13,72.23 25.38,72.36 24.04,72.52 22.70,72.67 21.40,73.01 20.11,73.34 18.59,73.66 17.07,73.97 15.22,74.03 13.38,74.09 12.12,74.06 10.85,74.04 8.60,74.06 6.35,74.08 5.86,74.00 5.36,73.92 4.92,73.68 4.48,73.45 4.14,73.09 3.80,72.73 3.59,72.27 3.38,71.82 3.32,71.33 3.27,70.83 3.38,70.34 3.48,69.86 3.74,69.43 4.00,69.00 4.38,68.68 4.76,68.36 5.22,68.17 5.68,67.99 6.18,67.96 6.68,67.93 7.16,68.06 7.64,68.20 8.05,68.48 8.46,68.76 8.77,69.15 9.07,69.55 9.23,70.02 9.39,70.50 9.39,70.99 9.39,71.49 9.23,71.96 9.07,72.44 8.77,72.83 8.47,73.23 8.05,73.51 7.64,73.79 7.16,73.92 6.68,74.06 6.18,74.03 5.68,74.00 5.22,73.82 4.76,73.64 4.38,73.31 4.00,72.99 3.74,72.56 3.48,72.14 3.38,71.65 3.27,71.16 3.32,70.67 3.38,70.17 3.59,69.72 3.79,69.27 4.14,68.90 4.48,68.54 4.92,68.31 5.36,68.08 5.85,67.99 6.34,67.91 6.34,67.91 6.34,67.91 8.59,67.93 10.84,67.94 12.97,67.91 15.10,67.87 16.50,67.85 17.91,67.83 19.85,67.41 21.80,66.99 24.32,66.66 26.84,66.33 28.31,66.23 29.78,66.13 31.03,65.79 32.29,65.46 33.81,65.01 35.34,64.57 36.96,64.04 38.59,63.51 40.69,62.37 42.79,61.23 43.87,60.48 44.96,59.72 46.44,58.76 47.92,57.80 48.98,56.86 50.03,55.93 51.37,54.63 52.71,53.34 53.41,52.22 54.11,51.10 55.05,49.50 55.99,47.89 56.02,46.14 56.04,44.39 56.04,43.31 56.04,42.23 55.97,40.79 55.90,39.34 55.85,38.12 55.79,36.90 55.59,35.01 55.40,33.12 54.98,31.72 54.57,30.32 54.07,29.14 53.58,27.96 53.20,26.40 52.82,24.84 52.01,24.02 51.20,23.21 50.25,22.04 49.29,20.87 47.95,19.75 46.61,18.64 45.65,18.11 44.68,17.59 43.42,16.71 42.16,15.84 40.64,15.23 39.12,14.62 38.09,13.97 37.06,13.33 35.47,12.75 33.88,12.18 32.45,11.52 31.02,10.86 29.40,10.27 27.78,9.69 26.27,9.00 24.76,8.31 23.13,7.72 21.49,7.14 20.33,6.70 19.17,6.27 17.63,5.86 16.10,5.45 14.49,5.05 12.89,4.66 11.05,4.30 9.21,3.95 7.71,3.57 6.21,3.19 4.69,2.87 3.16,2.55 1.44,2.33 -0.28,2.12 -0.53,2.05 -0.78,1.99 -1.01,1.86 -1.23,1.74 -1.42,1.57 -1.62,1.39 -1.76,1.18 -1.90,0.97 -1.99,0.72 -2.08,0.48 -2.11,0.22 -2.14,-0.02 -2.10,-0.28 -2.07,-0.53 -1.97,-0.77 -1.88,-1.01 -1.73,-1.22 -1.58,-1.44 -1.38,-1.60 -1.19,-1.77 -0.96,-1.89 -0.73,-2.01 -0.48,-2.07 -0.23,-2.12 0.02,-2.12 0.28,-2.12 0.28,-2.12 L 0.28,-2.12 Z"></path></g><g transform="translate(581.4944443172878 978.9603174603171) rotate(0 -4 14)" stroke="none"><path fill="#1e1e1e" d="M 1.10,2.20 Q 1.10,2.20 -0.03,2.79 -1.17,3.38 -2.74,4.31 -4.30,5.24 -5.20,5.99 -6.10,6.74 -7.43,7.66 -8.76,8.58 -9.78,9.47 -10.81,10.36 -11.50,11.50 -12.19,12.63 -10.78,13.23 -9.38,13.83 -7.37,15.18 -5.37,16.53 -4.45,17.21 -3.53,17.89 -1.97,19.16 -0.42,20.43 1.07,21.15 2.57,21.88 4.17,22.88 5.77,23.88 7.08,24.60 8.40,25.32 8.75,25.66 9.09,26.00 9.31,26.44 9.52,26.87 9.59,27.35 9.66,27.83 9.57,28.31 9.48,28.78 9.24,29.21 9.00,29.63 8.64,29.95 8.28,30.28 7.84,30.47 7.39,30.66 6.91,30.70 6.43,30.74 5.96,30.63 5.49,30.51 5.08,30.25 4.67,29.99 4.36,29.62 4.06,29.24 3.89,28.78 3.72,28.33 3.71,27.85 3.69,27.36 3.83,26.90 3.97,26.43 4.26,26.04 4.54,25.64 4.93,25.36 5.32,25.08 5.79,24.93 6.25,24.79 6.73,24.80 7.22,24.81 7.67,24.98 8.13,25.15 8.51,25.45 8.89,25.75 9.15,26.16 9.41,26.57 9.53,27.04 9.65,27.51 9.61,27.99 9.57,28.47 9.38,28.92 9.19,29.36 8.87,29.73 8.55,30.09 8.12,30.33 7.70,30.57 7.23,30.66 6.75,30.75 6.27,30.69 5.79,30.62 5.36,30.41 4.92,30.20 4.92,30.20 4.92,30.20 3.08,28.99 1.25,27.78 -0.26,26.78 -1.78,25.78 -3.32,24.63 -4.85,23.47 -6.60,22.22 -8.35,20.97 -9.63,20.16 -10.91,19.35 -12.02,18.57 -13.12,17.79 -13.90,17.03 -14.68,16.27 -15.64,15.15 -16.60,14.03 -16.72,12.65 -16.84,11.27 -16.31,10.17 -15.78,9.07 -14.83,7.94 -13.88,6.80 -12.66,5.78 -11.44,4.75 -10.21,3.88 -8.98,3.01 -7.91,2.24 -6.85,1.47 -5.13,0.19 -3.42,-1.08 -2.26,-1.64 -1.10,-2.20 -0.82,-2.30 -0.54,-2.40 -0.24,-2.43 0.04,-2.46 0.34,-2.41 0.63,-2.37 0.91,-2.26 1.18,-2.15 1.42,-1.98 1.66,-1.80 1.86,-1.58 2.05,-1.35 2.18,-1.09 2.31,-0.82 2.38,-0.53 2.44,-0.24 2.44,0.04 2.43,0.34 2.36,0.63 2.28,0.91 2.14,1.17 1.99,1.43 1.79,1.65 1.59,1.87 1.34,2.03 1.10,2.20 1.10,2.20 L 1.10,2.20 Z"></path></g><g transform="translate(643.7694458431667 944.4603174603171) rotate(0 151.0416717529297 12.5)"><text x="0" y="0" font-family="Virgil, Segoe UI Emoji" font-size="20px" fill="#1e1e1e" text-anchor="start" style="white-space: pre;" direction="ltr" dominant-baseline="text-before-edge">Compare with requested state</text></g><g stroke-linecap="round"><g transform="translate(563.494444317288 1019.9007343822077) rotate(0 460.5612397325784 -0.8001138215267929)"><path d="M0.81 1.03 C154.42 1.09, 768 -0.33, 921.34 -0.72 M-0.22 0.52 C153.25 0.31, 766.98 -2.53, 920.31 -2.63" stroke="#1e1e1e" stroke-width="1" fill="none"></path></g><g transform="translate(563.494444317288 1019.9007343822077) rotate(0 460.5612397325784 -0.8001138215267929)"><path d="M893.86 7.45 C900.61 3.65, 907.33 3.65, 920.28 -2.76 M892.78 7.56 C899.66 4, 909.01 1.78, 921.16 -2.88" stroke="#1e1e1e" stroke-width="1" fill="none"></path></g><g transform="translate(563.494444317288 1019.9007343822077) rotate(0 460.5612397325784 -0.8001138215267929)"><path d="M893.8 -13.08 C900.39 -11.26, 907.12 -5.65, 920.28 -2.76 M892.72 -12.96 C899.42 -10.42, 908.8 -6.55, 921.16 -2.88" stroke="#1e1e1e" stroke-width="1" fill="none"></path></g></g><mask></mask><g transform="translate(1037.094603008694 985.4603174603171) rotate(0 171.02499389648438 12.5)"><text x="0" y="0" font-family="Virgil, Segoe UI Emoji" font-size="20px" fill="#1e1e1e" text-anchor="start" style="white-space: pre;" direction="ltr" dominant-baseline="text-before-edge">gRPC request to schedule changes</text></g><g stroke-linecap="round"><g transform="translate(1479.5050817315237 1071.6270215301104) rotate(0 -453.8812506248377 1.6947419273528794)"><path d="M0.52 -0.84 C-150.71 -0.56, -756.36 2.12, -907.87 2.69 M-0.66 1.33 C-151.92 1.73, -756.88 3.8, -908.29 4.23" stroke="#1e1e1e" stroke-width="1" fill="none"></path></g><g transform="translate(1479.5050817315237 1071.6270215301104) rotate(0 -453.8812506248377 1.6947419273528794)"><path d="M-881.53 -4.43 C-887.37 -2.7, -894.83 -1.59, -907.06 5.63 M-879.88 -7.03 C-889.93 -2.23, -897.33 0.61, -907.8 3.84" stroke="#1e1e1e" stroke-width="1" fill="none"></path></g><g transform="translate(1479.5050817315237 1071.6270215301104) rotate(0 -453.8812506248377 1.6947419273528794)"><path d="M-881.46 16.1 C-887.49 12.48, -894.97 8.25, -907.06 5.63 M-879.81 13.49 C-890.08 11.65, -897.49 7.84, -907.8 3.84" stroke="#1e1e1e" stroke-width="1" fill="none"></path></g></g><mask></mask><g transform="translate(736.1717483981902 1042.0683626300186) rotate(0 70.16666412353516 12.5)"><text x="0" y="0" font-family="Virgil, Segoe UI Emoji" font-size="20px" fill="#1e1e1e" text-anchor="start" style="white-space: pre;" direction="ltr" dominant-baseline="text-before-edge">Response, etc.</text></g></svg>